<?xml version="1.0" standalone="no"?>
<!DOCTYPE svg PUBLIC "-//W3C//DTD SVG 20010904//EN"
 "http://www.w3.org/TR/2001/REC-SVG-20010904/DTD/svg10.dtd">
<svg version="1.0" xmlns="http://www.w3.org/2000/svg"
 width="512.000000pt" height="512.000000pt" viewBox="0 0 512.000000 512.000000"
 preserveAspectRatio="xMidYMid meet">
<metadata>
Created by potrace 1.16, written by Peter Selinger 2001-2019
</metadata>
<g transform="translate(0.000000,512.000000) scale(0.100000,-0.100000)"
fill="#000000" stroke="none">
<path d="M1140 4339 c-285 -49 -445 -359 -321 -624 126 -270 494 -333 707
-121 132 133 164 339 79 513 -83 168 -276 264 -465 232z"/>
<path d="M2505 4343 c-66 -9 -158 -47 -213 -87 -165 -122 -218 -367 -121 -557
26 -51 101 -134 151 -165 131 -83 330 -87 464 -8 53 31 136 118 163 172 102
199 42 450 -134 567 -90 59 -217 92 -310 78z"/>
<path d="M3830 4339 c-183 -31 -334 -186 -358 -366 -48 -360 309 -618 635
-458 209 103 296 362 193 582 -80 173 -277 275 -470 242z"/>
<path d="M1145 1648 c-230 -29 -401 -263 -364 -498 46 -294 354 -457 624 -331
270 126 333 495 121 707 -97 96 -234 140 -381 122z"/>
<path d="M3840 1648 c-233 -26 -401 -255 -368 -501 31 -234 262 -403 498 -367
293 46 457 355 331 625 -81 173 -257 266 -461 243z"/>
</g>
</svg>
